# xmcd CD database file
#
# Track frame offsets:
#	182
#	10827
#	20955
#	31997
#	43955
#	56982
#	70677
#	83505
#	92065
#	102680
#	115337
#	131070
#	140737
#	155530
#	165660
#	179085
#	191212
#	206755
#	220425
#	233112
#	244367
#	262472
#	272765
#	283820
#	298672
#
# Disc length: 4194 seconds
#
# Revision: 3
# Processed by: cddbd v1.5.2PL0 Copyright (c) Steve Scherf et al.
# Submitted via: jetAudio 7
#
DISCID=9f106019
DTITLE=The Statler Brothers - Legendary Country Singers
DYEAR=1900
DGENRE=Country
TTITLE0=Flowers On The Wall
TTITLE1=You Can't Have Your Kate And Edith, Too
TTITLE2=Bed Of Rose's
TTITLE3=The Class Of '57
TTITLE4=Do You Remember These
TTITLE5=Susan When She tried
TTITLE6=I'll Go To My Grave Loving You
TTITLE7=Whatever Happend To Randolph Scott
TTITLE8=Thank God I've Got You
TTITLE9=I Was There
TTITLE10=How To Be A Country Star
TTITLE11=Who Am I To Say
TTITLE12=Don't Wait On Me
TTITLE13=Do You know You Are My Sunshine
TTITLE14=Charlotte's Web
TTITLE15=You'll Be Back (Every Night In My Dreams)
TTITLE16=Elizabeth
TTITLE17=Guilty
TTITLE18=Atlanta Blue
TTITLE19=Oh Baby Mine (I Get So Lonely)
TTITLE20=Too Much On My Heart
TTITLE21=Hello Mary Lou
TTITLE22=Count On Me
TTITLE23=My Onl;y Love
TTITLE24=Hey Joe
EXTD=
EXTT0=The Statler Brothers 
EXTT1=The Statler Brothers 
EXTT2=The Statler Brothers 
EXTT3=The Statler Brothers 
EXTT4=The Statler Brothers 
EXTT5=The Statler Brothers 
EXTT6=The Statler Brothers 
EXTT7=The Statler Brothers 
EXTT8=The Statler Brothers 
EXTT9=The Statler Brothers 
EXTT10=The Statler Brothers 
EXTT11=The Statler Brothers 
EXTT12=The Statler Brothers 
EXTT13=The Statler Brothers 
EXTT14=The Statler Brothers 
EXTT15=The Statler Brothers 
EXTT16=The Statler Brothers 
EXTT17=The Statler Brothers 
EXTT18=The Statler Brothers 
EXTT19=The Statler Brothers 
EXTT20=The Statler Brothers 
EXTT21=The Statler Brothers 
EXTT22=The Statler Brothers 
EXTT23=The Statler Brothers 
EXTT24=Lester "Roadhog" Moran And His Cadillac Cowboys
PLAYORDER=
